<?xml version="1.0" encoding="UTF-8" standalone="no"?>
<!DOCTYPE svg PUBLIC "-//W3C//DTD SVG 1.1//EN" "http://www.w3.org/Graphics/SVG/1.1/DTD/svg11.dtd">
<!-- Created with Vectornator (http://vectornator.io/) -->
<svg height="100%" stroke-miterlimit="10" style="fill-rule:nonzero;clip-rule:evenodd;stroke-linecap:round;stroke-linejoin:round;" version="1.1" viewBox="0 0 200 200" width="100%" xml:space="preserve" xmlns="http://www.w3.org/2000/svg" xmlns:vectornator="http://vectornator.io" xmlns:xlink="http://www.w3.org/1999/xlink">
<defs>
<clipPath id="TextBounds">
<rect height="160.826" width="177.885" x="12.6093" y="20.019"/>
</clipPath>
<linearGradient gradientTransform="matrix(1 0 0 1 -422.798 -46.7181)" gradientUnits="userSpaceOnUse" id="LinearGradient" x1="573.944" x2="501.51" y1="101.405" y2="220.114">
<stop offset="0" stop-color="#3097fe"/>
<stop offset="1" stop-color="#010810"/>
</linearGradient>
</defs>
<clipPath id="ArtboardFrame">
<rect height="200" width="200" x="0" y="0"/>
</clipPath>
<g clip-path="url(#ArtboardFrame)" id="Layer-1" vectornator:layerName="Layer 1">
<path d="M-0.673917-0.00758976L202.2-0.00758976L202.2 201.077L-0.673917 201.077L-0.673917-0.00758976Z" fill="#000000" fill-rule="nonzero" opacity="1" stroke="none"/>
<path d="M188.152 366.191L192.098 366.191L192.098 368.822L188.152 368.822L188.152 366.191Z" fill="#000000" fill-rule="nonzero" opacity="1" stroke="#000000" stroke-linecap="butt" stroke-linejoin="round" stroke-width="2.381"/>
<path clip-path="url(#TextBounds)" d="M68.6063 170.549C70.0814 170.549 71.4723 170.223 72.7789 169.57C74.0855 168.916 75.6239 167.789 77.3941 166.187L101.481 144.882L140.489 144.945C146.938 144.945 152.48 143.67 157.116 141.12C161.753 138.57 165.325 134.977 167.833 130.341C170.34 125.704 171.594 120.183 171.594 113.777L171.594 63.3257C171.594 56.9193 170.34 51.3874 167.833 46.7301C165.325 42.0727 161.753 38.4797 157.116 35.9508C152.48 33.4219 146.938 32.1575 140.489 32.1575L61.399 32.1575C54.9504 32.1575 49.3974 33.4219 44.7401 35.9508C40.0828 38.4797 36.5002 42.0727 33.9925 46.7301C31.4847 51.3874 30.2308 56.9193 30.2308 63.3257L30.2308 113.777C30.2308 120.183 31.5268 125.704 34.1189 130.341C36.711 134.977 40.2514 138.559 44.7401 141.088C49.2289 143.617 54.3603 144.882 60.1346 144.882L61.8416 144.882L61.8416 163.026C61.8416 165.344 62.4422 167.178 63.6434 168.526C64.8446 169.875 66.4989 170.549 68.6063 170.549ZM68.4798 82.0393C68.4798 77.8667 69.8602 74.4317 72.6208 71.7342C75.3815 69.0367 78.8482 67.688 83.0208 67.688C86.224 67.688 88.9847 68.4678 91.3028 70.0272C93.6209 71.5867 95.4122 73.7046 96.6766 76.381C97.9411 79.0574 98.5733 82.0182 98.5733 85.2636C98.5733 88.9305 97.9095 92.2285 96.5818 95.1578C95.2541 98.0871 93.5472 100.605 91.4609 102.713C89.3745 104.82 87.1723 106.422 84.8542 107.518C82.5361 108.613 80.4076 109.161 78.4688 109.161C77.4573 109.161 76.5933 108.877 75.8767 108.308C75.1602 107.739 74.802 106.97 74.802 106C74.802 105.199 75.0443 104.525 75.529 103.977C76.0137 103.429 76.7618 103.029 77.7734 102.776C79.7965 102.312 81.6404 101.596 83.3053 100.626C84.9701 99.6571 86.4031 98.498 87.6043 97.1493C88.8056 95.8005 89.659 94.3464 90.1648 92.787L88.9636 92.787C88.0785 93.8828 86.9405 94.6626 85.5496 95.1262C84.1588 95.5898 82.5993 95.8216 80.8712 95.8216C77.2044 95.8216 74.2224 94.515 71.9254 91.9019C69.6283 89.2887 68.4798 86.0012 68.4798 82.0393ZM104.453 82.0393C104.453 77.8667 105.823 74.4317 108.562 71.7342C111.302 69.0367 114.758 67.688 118.931 67.688C122.134 67.688 124.905 68.4678 127.244 70.0272C129.583 71.5867 131.385 73.7046 132.65 76.381C133.914 79.0574 134.546 82.0182 134.546 85.2636C134.546 88.9305 133.872 92.2285 132.523 95.1578C131.175 98.0871 129.468 100.605 127.402 102.713C125.337 104.82 123.145 106.422 120.827 107.518C118.509 108.613 116.381 109.161 114.442 109.161C113.43 109.161 112.566 108.877 111.85 108.308C111.133 107.739 110.775 106.97 110.775 106C110.775 105.199 111.017 104.525 111.502 103.977C111.987 103.429 112.714 103.029 113.683 102.776C115.706 102.312 117.561 101.596 119.247 100.626C120.933 99.6571 122.366 98.498 123.546 97.1493C124.726 95.8005 125.59 94.3464 126.138 92.787L124.937 92.787C124.009 93.8828 122.85 94.6626 121.459 95.1262C120.069 95.5898 118.53 95.8216 116.844 95.8216C113.135 95.8216 110.143 94.515 107.867 91.9019C105.591 89.2887 104.453 86.0012 104.453 82.0393Z" fill="url(#LinearGradient)" opacity="1" stroke="none"/>
</g>
</svg>
