<?xml version="1.0" encoding="UTF-8" standalone="no"?>
<!DOCTYPE svg PUBLIC "-//W3C//DTD SVG 1.1//EN" "http://www.w3.org/Graphics/SVG/1.1/DTD/svg11.dtd">
<!-- Created with Vectornator (http://vectornator.io/) -->
<svg height="100%" stroke-miterlimit="10" style="fill-rule:nonzero;clip-rule:evenodd;stroke-linecap:round;stroke-linejoin:round;" version="1.1" viewBox="0 0 130 40" width="100%" xml:space="preserve" xmlns="http://www.w3.org/2000/svg" xmlns:vectornator="http://vectornator.io" xmlns:xlink="http://www.w3.org/1999/xlink">
<defs>
<linearGradient gradientTransform="matrix(1 0 0 1 -58.9609 -5.95888)" gradientUnits="userSpaceOnUse" id="LinearGradient" x1="44.451" x2="166.229" y1="21.7118" y2="23.9447">
<stop offset="0.59375" stop-color="#000000"/>
<stop offset="1" stop-color="#ffffff"/>
</linearGradient>
<linearGradient gradientTransform="matrix(0.150232 0 0 0.148458 13.2256 -4.7625)" gradientUnits="userSpaceOnUse" id="LinearGradient_2" x1="602.434" x2="525.91" y1="71.4049" y2="250.751">
<stop offset="0" stop-color="#3097fe"/>
<stop offset="1" stop-color="#b0d8ff"/>
</linearGradient>
</defs>
<clipPath id="ArtboardFrame">
<rect height="40" width="130" x="0" y="0"/>
</clipPath>
<g clip-path="url(#ArtboardFrame)" id="Layer-1" vectornator:layerName="Layer 1">
<g fill="url(#LinearGradient)" opacity="0.999686" stroke="none">
<path d="M25.7281 30.2115L40.4812 30.2115L40.4812 26.3689L30.3886 26.3689L30.3886 20.7748L39.9102 20.7748L39.9102 17.1328L30.3886 17.1328L30.3886 11.7855L40.4812 11.7855L40.4812 7.94293L25.7281 7.94293L25.7281 30.2115Z"/>
<path d="M44.239 30.2115L48.3902 30.2115L48.3902 15.1575L50.543 15.1575L45.8825 8.56022L54.5322 30.2115L57.4566 30.2115L66.1063 8.56022L61.4458 15.1575L63.5986 15.1575L63.5986 30.2115L67.7498 30.2115L67.7498 7.94293L62.364 7.94293L56.0445 23.9538L55.9442 23.9538L49.6248 7.94293L44.239 7.94293L44.239 30.2115Z"/>
<path d="M71.8548 30.2115L76.5153 30.2115L76.5153 7.94293L71.8548 7.94293L71.8548 30.2115Z"/>
</g>
<path d="M-278.148-313.164C-278.192-313.164-278.23-313.182-278.262-313.217C-278.294-313.253-278.31-313.298-278.31-313.353C-278.31-313.408-278.294-313.454-278.262-313.489C-278.23-313.524-278.192-313.541-278.148-313.541C-278.103-313.541-278.065-313.524-278.033-313.489C-278-313.454-277.984-313.408-277.984-313.353C-277.984-313.298-278-313.253-278.033-313.217C-278.065-313.182-278.103-313.164-278.148-313.164ZM-277.285-313.164C-277.329-313.164-277.367-313.182-277.399-313.217C-277.431-313.253-277.447-313.298-277.447-313.353C-277.447-313.408-277.431-313.454-277.399-313.489C-277.367-313.524-277.329-313.541-277.285-313.541C-277.24-313.541-277.202-313.524-277.169-313.489C-277.136-313.454-277.12-313.408-277.12-313.353C-277.12-313.298-277.136-313.253-277.169-313.217C-277.202-313.182-277.24-313.164-277.285-313.164ZM-278.243-312.632C-278.243-312.651-278.235-312.665-278.22-312.672C-278.204-312.68-278.187-312.68-278.169-312.671C-278.115-312.644-278.053-312.617-277.984-312.591C-277.915-312.564-277.826-312.551-277.718-312.551C-277.609-312.551-277.52-312.565-277.452-312.591C-277.383-312.618-277.321-312.644-277.265-312.671C-277.247-312.679-277.231-312.679-277.215-312.672C-277.199-312.665-277.192-312.651-277.192-312.632C-277.192-312.598-277.214-312.557-277.258-312.508C-277.302-312.46-277.363-312.417-277.442-312.379C-277.521-312.341-277.613-312.322-277.718-312.322C-277.823-312.322-277.915-312.341-277.994-312.379C-278.073-312.417-278.134-312.46-278.178-312.508C-278.221-312.557-278.243-312.598-278.243-312.632ZM-277.717-311.542C-277.514-311.542-277.323-311.581-277.145-311.658C-276.966-311.735-276.809-311.841-276.673-311.977C-276.537-312.113-276.431-312.27-276.354-312.449C-276.276-312.627-276.238-312.818-276.238-313.021C-276.238-313.224-276.276-313.414-276.354-313.593C-276.431-313.771-276.537-313.928-276.673-314.064C-276.809-314.201-276.966-314.307-277.145-314.384C-277.324-314.461-277.515-314.5-277.718-314.5C-277.921-314.5-278.111-314.461-278.29-314.384C-278.468-314.307-278.625-314.201-278.761-314.064C-278.897-313.928-279.003-313.771-279.08-313.593C-279.157-313.414-279.196-313.224-279.196-313.021C-279.196-312.818-279.157-312.627-279.08-312.449C-279.003-312.27-278.897-312.113-278.761-311.977C-278.625-311.841-278.467-311.735-278.289-311.658C-278.111-311.581-277.92-311.542-277.717-311.542Z" fill="#0093cb" opacity="1" stroke="none"/>
<path d="M89.7879 31.801C90.0491 31.801 90.2954 31.7432 90.5268 31.6275C90.7581 31.5118 91.0306 31.3121 91.344 31.0285L95.6094 27.2557L102.517 27.2669C103.659 27.2669 104.64 27.0411 105.461 26.5896C106.282 26.1381 106.915 25.5018 107.359 24.6808C107.803 23.8598 108.025 22.8821 108.025 21.7477L108.025 12.8139C108.025 11.6794 107.803 10.6998 107.359 9.87511C106.915 9.05039 106.282 8.41413 105.461 7.96632C104.64 7.51851 103.659 7.29461 102.517 7.29461L88.5116 7.29461C87.3697 7.29461 86.3864 7.51851 85.5617 7.96632C84.737 8.41413 84.1026 9.05039 83.6585 9.87511C83.2144 10.6998 82.9924 11.6794 82.9924 12.8139L82.9924 21.7477C82.9924 22.8821 83.2219 23.8598 83.6809 24.6808C84.1399 25.5018 84.7668 26.1362 85.5617 26.584C86.3565 27.0318 87.2652 27.2557 88.2877 27.2557L88.59 27.2557L88.59 30.4688C88.59 30.8793 88.6963 31.2039 88.9091 31.4427C89.1218 31.6816 89.4147 31.801 89.7879 31.801ZM89.7655 16.1277C89.7655 15.3888 90.0099 14.7805 90.4988 14.3028C90.9876 13.8252 91.6015 13.5863 92.3404 13.5863C92.9076 13.5863 93.3965 13.7244 93.807 14.0006C94.2175 14.2767 94.5347 14.6517 94.7586 15.1257C94.9825 15.5996 95.0944 16.1239 95.0944 16.6986C95.0944 17.3479 94.9769 17.932 94.7418 18.4507C94.5067 18.9694 94.2044 19.4153 93.835 19.7885C93.4655 20.1617 93.0756 20.4453 92.6651 20.6393C92.2546 20.8334 91.8777 20.9304 91.5343 20.9304C91.3552 20.9304 91.2022 20.88 91.0753 20.7793C90.9485 20.6785 90.885 20.5423 90.885 20.3707C90.885 20.2288 90.9279 20.1094 91.0138 20.0124C91.0996 19.9154 91.2321 19.8445 91.4112 19.7997C91.7694 19.7176 92.096 19.5907 92.3908 19.4191C92.6856 19.2474 92.9393 19.0421 93.1521 18.8033C93.3648 18.5645 93.5159 18.307 93.6055 18.0308L93.3927 18.0308C93.236 18.2249 93.0345 18.363 92.7882 18.4451C92.5419 18.5272 92.2658 18.5682 91.9598 18.5682C91.3104 18.5682 90.7824 18.3368 90.3756 17.8741C89.9689 17.4114 89.7655 16.8292 89.7655 16.1277ZM96.1356 16.1277C96.1356 15.3888 96.3781 14.7805 96.8633 14.3028C97.3484 13.8252 97.9604 13.5863 98.6993 13.5863C99.2665 13.5863 99.7572 13.7244 100.171 14.0006C100.586 14.2767 100.905 14.6517 101.129 15.1257C101.353 15.5996 101.465 16.1239 101.465 16.6986C101.465 17.3479 101.345 17.932 101.106 18.4507C100.867 18.9694 100.565 19.4153 100.199 19.7885C99.8337 20.1617 99.4456 20.4453 99.0352 20.6393C98.6247 20.8334 98.2478 20.9304 97.9044 20.9304C97.7253 20.9304 97.5723 20.88 97.4454 20.7793C97.3185 20.6785 97.2551 20.5423 97.2551 20.3707C97.2551 20.2288 97.298 20.1094 97.3839 20.0124C97.4697 19.9154 97.5984 19.8445 97.7701 19.7997C98.1283 19.7176 98.4567 19.5907 98.7553 19.4191C99.0538 19.2474 99.3076 19.0421 99.5165 18.8033C99.7255 18.5645 99.8785 18.307 99.9756 18.0308L99.7628 18.0308C99.5986 18.2249 99.3934 18.363 99.1471 18.4451C98.9008 18.5272 98.6284 18.5682 98.3299 18.5682C97.6731 18.5682 97.1432 18.3368 96.7401 17.8741C96.3371 17.4114 96.1356 16.8292 96.1356 16.1277Z" fill="url(#LinearGradient_2)" opacity="1" stroke="none"/>
</g>
</svg>
