<?xml version="1.0" encoding="UTF-8" standalone="no"?>
<!DOCTYPE svg PUBLIC "-//W3C//DTD SVG 1.1//EN" "http://www.w3.org/Graphics/SVG/1.1/DTD/svg11.dtd">
<!-- Created with Vectornator (http://vectornator.io/) -->
<svg height="100%" stroke-miterlimit="10" style="fill-rule:nonzero;clip-rule:evenodd;stroke-linecap:round;stroke-linejoin:round;" version="1.1" viewBox="0 0 130 40" width="100%" xml:space="preserve" xmlns="http://www.w3.org/2000/svg" xmlns:vectornator="http://vectornator.io" xmlns:xlink="http://www.w3.org/1999/xlink">
<defs>
<linearGradient gradientTransform="matrix(1 0 0 1 -58.9609 -5.95888)" gradientUnits="userSpaceOnUse" id="LinearGradient" x1="0.314856" x2="177.324" y1="27.3235" y2="27.3235">
<stop offset="0" stop-color="#000000"/>
<stop offset="1" stop-color="#ffffff"/>
</linearGradient>
<filter color-interpolation-filters="sRGB" filterUnits="userSpaceOnUse" height="41.2236" id="Filter" width="69.7422" x="16.2506" y="-1.53461">
<feComponentTransfer in="SourceGraphic" result="Alpha">
<feFuncA slope="0.999686" type="linear"/>
</feComponentTransfer>
<feDropShadow dx="0" dy="0" flood-color="#262626" flood-opacity="0.84671" in="Alpha" result="Shadow" stdDeviation="3.79101"/>
</filter>
<linearGradient gradientTransform="matrix(0.150232 0 0 0.148458 13.7047 -5.24158)" gradientUnits="userSpaceOnUse" id="LinearGradient_2" x1="602.434" x2="492.109" y1="71.4049" y2="281.176">
<stop offset="0" stop-color="#3097fe"/>
<stop offset="1" stop-color="#010810"/>
</linearGradient>
</defs>
<clipPath id="ArtboardFrame">
<rect height="40" width="130" x="0" y="0"/>
</clipPath>
<g clip-path="url(#ArtboardFrame)" id="Layer-1" vectornator:layerName="Layer 1">
<path d="M-0.95081-0.937829L131.685-0.937829L131.685 40.0929L-0.95081 40.0929L-0.95081-0.937829Z" fill="#000000" fill-rule="nonzero" opacity="1" stroke="none"/>
<g fill="url(#LinearGradient)" filter="url(#Filter)" stroke="none" vectornator:shadowAngle="1.43101" vectornator:shadowColor="#262626" vectornator:shadowOffset="0" vectornator:shadowOpacity="0.84671" vectornator:shadowRadius="7.58203">
<path d="M25.7281 30.2115L40.4812 30.2115L40.4812 26.3689L30.3886 26.3689L30.3886 20.7748L39.9102 20.7748L39.9102 17.1328L30.3886 17.1328L30.3886 11.7855L40.4812 11.7855L40.4812 7.94293L25.7281 7.94293L25.7281 30.2115Z"/>
<path d="M44.239 30.2115L48.3902 30.2115L48.3902 15.1575L50.543 15.1575L45.8825 8.56022L54.5322 30.2115L57.4566 30.2115L66.1063 8.56022L61.4458 15.1575L63.5986 15.1575L63.5986 30.2115L67.7498 30.2115L67.7498 7.94293L62.364 7.94293L56.0445 23.9538L55.9442 23.9538L49.6248 7.94293L44.239 7.94293L44.239 30.2115Z"/>
<path d="M71.8548 30.2115L76.5153 30.2115L76.5153 7.94293L71.8548 7.94293L71.8548 30.2115Z"/>
</g>
<path d="M-278.148-313.164C-278.192-313.164-278.23-313.182-278.262-313.217C-278.294-313.253-278.31-313.298-278.31-313.353C-278.31-313.408-278.294-313.454-278.262-313.489C-278.23-313.524-278.192-313.541-278.148-313.541C-278.103-313.541-278.065-313.524-278.033-313.489C-278-313.454-277.984-313.408-277.984-313.353C-277.984-313.298-278-313.253-278.033-313.217C-278.065-313.182-278.103-313.164-278.148-313.164ZM-277.285-313.164C-277.329-313.164-277.367-313.182-277.399-313.217C-277.431-313.253-277.447-313.298-277.447-313.353C-277.447-313.408-277.431-313.454-277.399-313.489C-277.367-313.524-277.329-313.541-277.285-313.541C-277.24-313.541-277.202-313.524-277.169-313.489C-277.136-313.454-277.12-313.408-277.12-313.353C-277.12-313.298-277.136-313.253-277.169-313.217C-277.202-313.182-277.24-313.164-277.285-313.164ZM-278.243-312.632C-278.243-312.651-278.235-312.665-278.22-312.672C-278.204-312.68-278.187-312.68-278.169-312.671C-278.115-312.644-278.053-312.617-277.984-312.591C-277.915-312.564-277.826-312.551-277.718-312.551C-277.609-312.551-277.52-312.565-277.452-312.591C-277.383-312.618-277.321-312.644-277.265-312.671C-277.247-312.679-277.231-312.679-277.215-312.672C-277.199-312.665-277.192-312.651-277.192-312.632C-277.192-312.598-277.214-312.557-277.258-312.508C-277.302-312.46-277.363-312.417-277.442-312.379C-277.521-312.341-277.613-312.322-277.718-312.322C-277.823-312.322-277.915-312.341-277.994-312.379C-278.073-312.417-278.134-312.46-278.178-312.508C-278.221-312.557-278.243-312.598-278.243-312.632ZM-277.717-311.542C-277.514-311.542-277.323-311.581-277.145-311.658C-276.966-311.735-276.809-311.841-276.673-311.977C-276.537-312.113-276.431-312.27-276.354-312.449C-276.276-312.627-276.238-312.818-276.238-313.021C-276.238-313.224-276.276-313.414-276.354-313.593C-276.431-313.771-276.537-313.928-276.673-314.064C-276.809-314.201-276.966-314.307-277.145-314.384C-277.324-314.461-277.515-314.5-277.718-314.5C-277.921-314.5-278.111-314.461-278.29-314.384C-278.468-314.307-278.625-314.201-278.761-314.064C-278.897-313.928-279.003-313.771-279.08-313.593C-279.157-313.414-279.196-313.224-279.196-313.021C-279.196-312.818-279.157-312.627-279.08-312.449C-279.003-312.27-278.897-312.113-278.761-311.977C-278.625-311.841-278.467-311.735-278.289-311.658C-278.111-311.581-277.92-311.542-277.717-311.542Z" fill="#0093cb" opacity="1" stroke="none"/>
<path d="M90.8504 32.9336C91.1274 32.9336 91.3886 32.8722 91.634 32.7495C91.8793 32.6269 92.1682 32.4151 92.5007 32.1144L97.0239 28.1135L104.349 28.1253C105.56 28.1253 106.601 27.8859 107.471 27.4071C108.342 26.9282 109.013 26.2535 109.484 25.3829C109.955 24.5123 110.19 23.4754 110.19 22.2724L110.19 12.7984C110.19 11.5954 109.955 10.5566 109.484 9.68201C109.013 8.80743 108.342 8.1327 107.471 7.65781C106.601 7.18293 105.56 6.94548 104.349 6.94548L89.497 6.94548C88.2861 6.94548 87.2433 7.18293 86.3687 7.65781C85.4941 8.1327 84.8214 8.80743 84.3504 9.68201C83.8795 10.5566 83.6441 11.5954 83.6441 12.7984L83.6441 22.2724C83.6441 23.4754 83.8874 24.5123 84.3742 25.3829C84.8609 26.2535 85.5258 26.9263 86.3687 27.4011C87.2116 27.876 88.1752 28.1135 89.2596 28.1135L89.5801 28.1135L89.5801 31.5208C89.5801 31.9561 89.6929 32.3004 89.9185 32.5536C90.144 32.8069 90.4547 32.9336 90.8504 32.9336ZM90.8267 16.3126C90.8267 15.529 91.0859 14.884 91.6043 14.3774C92.1227 13.8709 92.7737 13.6176 93.5573 13.6176C94.1588 13.6176 94.6772 13.764 95.1125 14.0569C95.5478 14.3497 95.8842 14.7474 96.1217 15.25C96.3591 15.7526 96.4778 16.3086 96.4778 16.9181C96.4778 17.6066 96.3532 18.226 96.1038 18.7761C95.8545 19.3261 95.534 19.799 95.1422 20.1948C94.7504 20.5905 94.3369 20.8913 93.9016 21.0971C93.4663 21.3028 93.0666 21.4057 92.7025 21.4057C92.5125 21.4057 92.3503 21.3523 92.2157 21.2455C92.0812 21.1386 92.0139 20.9942 92.0139 20.8121C92.0139 20.6617 92.0594 20.5351 92.1504 20.4322C92.2414 20.3293 92.3819 20.2541 92.5719 20.2066C92.9518 20.1196 93.2981 19.985 93.6107 19.803C93.9233 19.621 94.1924 19.4033 94.418 19.15C94.6436 18.8968 94.8038 18.6237 94.8988 18.3308L94.6733 18.3308C94.507 18.5366 94.2933 18.6831 94.0322 18.7701C93.771 18.8572 93.4781 18.9007 93.1536 18.9007C92.465 18.9007 91.9051 18.6554 91.4737 18.1646C91.0424 17.6739 90.8267 17.0566 90.8267 16.3126ZM97.5819 16.3126C97.5819 15.529 97.8392 14.884 98.3536 14.3774C98.8681 13.8709 99.5171 13.6176 100.301 13.6176C100.902 13.6176 101.423 13.764 101.862 14.0569C102.301 14.3497 102.639 14.7474 102.877 15.25C103.114 15.7526 103.233 16.3086 103.233 16.9181C103.233 17.6066 103.106 18.226 102.853 18.7761C102.6 19.3261 102.279 19.799 101.892 20.1948C101.504 20.5905 101.092 20.8913 100.657 21.0971C100.221 21.3028 99.8218 21.4057 99.4577 21.4057C99.2678 21.4057 99.1055 21.3523 98.971 21.2455C98.8364 21.1386 98.7691 20.9942 98.7691 20.8121C98.7691 20.6617 98.8146 20.5351 98.9057 20.4322C98.9967 20.3293 99.1332 20.2541 99.3153 20.2066C99.6952 20.1196 100.043 19.985 100.36 19.803C100.677 19.621 100.946 19.4033 101.167 19.15C101.389 18.8968 101.551 18.6237 101.654 18.3308L101.428 18.3308C101.254 18.5366 101.037 18.6831 100.776 18.7701C100.514 18.8572 100.225 18.9007 99.9089 18.9007C99.2124 18.9007 98.6504 18.6554 98.223 18.1646C97.7956 17.6739 97.5819 17.0566 97.5819 16.3126Z" fill="url(#LinearGradient_2)" opacity="1" stroke="none"/>
</g>
</svg>
